<?xml version="1.0" encoding="UTF-8" standalone="no"?>
<!DOCTYPE svg PUBLIC "-//W3C//DTD SVG 1.1//EN" "http://www.w3.org/Graphics/SVG/1.1/DTD/svg11.dtd">
<svg width="100%" height="100%" viewBox="0 0 1127 2660" version="1.1" xmlns="http://www.w3.org/2000/svg" xmlns:xlink="http://www.w3.org/1999/xlink" xml:space="preserve" xmlns:serif="http://www.serif.com/" style="fill-rule:evenodd;clip-rule:evenodd;stroke-linejoin:round;stroke-miterlimit:2;">
  <g id="Artboard1" transform="matrix(1 0 0 1.00005 48.61 50.619)">
    <rect x="-48.61" y="-50.616" width="1126.43" height="2659.86" style="fill:none;"/>
    <clipPath id="_clip1">
      <rect x="-48.61" y="-50.616" width="1126.43" height="2659.86"/>
    </clipPath>
    <g clip-path="url(#_clip1)">
      <g id="map">
        <rect x="-0.116" y="-20.82" width="1149.01" height="2727.66" style="fill:rgb(0,123,255);" id="water" transform="matrix(.98084 0 0 .97514 -48.496 -30.314)"/>
        <path d="M197.725,1057.72L198.05,997.76L215.269,1002.74L248.573,1005.03L277.695,1023.17L275.155,1029.65L254.472,1033.47L237.213,1041.88L216.665,1048.97L210.114,1057.31L197.725,1057.72ZM197.725,1156.19L202.139,1149.94L222.144,1145.72L218.683,1142.01L238.495,1141.74L250.618,1132.77L260.313,1132.21L263.895,1135.97L272.506,1134.23L280.284,1121.8L306.436,1114.57L332.846,1107.47L349.023,1095.08L348.989,1071.42L345.783,1034.15L347.633,1019.09L340.03,1007.1L334.553,989.676L314.558,975.59L310.807,963.664L311.591,956.999L309.627,943.637L306.049,937.872L306.173,928.728L298.429,923.75L282.945,915.96L266.644,912.121L280.234,903.748L287.406,896.165L284.918,878.64L289.353,868.283L295.543,860.18L296.162,849.79L283.748,835.925L273.733,827.639L263.432,821.287L258.458,815.4L254.364,810.189L249.673,802.379L247.125,796.53L243.718,794.139L243.782,792.321L250.072,785.986L249.844,777.672L240.41,770.232L240.323,768.476L242.801,766.413L247.538,761.808L246.881,755.486L245.693,752.349L246.502,748.425L244.884,745.566L242.829,740.916L243.687,738.607L244.578,736.082L244.109,729.532L242.809,727.788L242.383,725.373L239.827,720.433L236.332,715.011L232.77,711.032L232.042,707.919L229.027,704.675L228.074,702.176L228.771,699.745L221.932,693.304L213.12,687.038L213.873,685.52L226.842,681.168L239.959,673.322L248.146,664.917L255.098,655.369L261.815,651.655L266.688,654.553L269.371,662.21L278.404,671.104L283.805,674.214L286.711,671.662L291.843,671.371L295.84,672.451L295.668,676.939L296.987,677.14L297.161,691.318L302.279,691.524L305.388,694.749L308.507,694.26L301.757,689.038L299.988,667.417L302.115,663.35L304.329,667.542L311.901,667.047L313.327,663.362L317.668,661.159L318.135,698.886L313.728,699.291L309.577,695.825L311.507,701.161L312.94,706.91L315.355,710.297L312.135,712.787L312.3,720.478L316.769,724.783L320.872,724.528L329.014,745.339L354.328,766.237L369.036,777.574L376.368,801.784L380.638,804.337L381.486,802.733L383.928,802.371L393.232,807.013L385.803,801.539L380.292,801.035L376.313,797.44L376.215,789.713L370.051,775.955L351.907,761.623L332.628,745.575L332.074,742.339L334.874,737.587L331.087,740.522L323.488,721.708L318.075,708.47L319.275,697.192L322.704,692.094L322.531,662.246L328.754,662.037L328.82,660.943L322.376,660.683L326.718,643.958L324.113,633.356L286.624,600.405L273.549,595.833L272.548,584.792L254.228,590.113L230.777,579.444L217.792,567.013L209.122,543.178L202.294,537.364L189.056,534.641L200.991,527.61L209.165,521.807L221.532,515.148L225.504,510.776L231.899,517.697L234.022,523.408L259.719,532.269L267.876,536.705L267.594,543.289L275.293,542.797L280.759,539.116L288.763,546.094L307.141,555.4L324.074,565.515L327.754,587.723L332.109,596.076L345.831,585.986L339.892,575.746L343.915,560.741L355.079,552.742L366.811,569.296L369.974,559.504L382.543,559.36L400.767,561.574L414.824,567.183L420.64,573.973L416.561,584.763L413.521,591.984L407.1,598.982L407.822,604.049L411.903,606.981L408.017,621.661L407.434,636.077L401.285,651.111L403.737,664.403L400.609,673.909L405.558,678.47L410.586,690.371L412.041,696.729L417.664,696.971L422.419,700.336L427.958,702.938L429.414,706.475L428.544,711.054L432.834,712.818L441.392,731.913L448.022,727.453L445.944,725.086L446.775,721.086L445.098,714.817L446.801,712.349L452.001,712.114L456.951,718.774L458.183,728.115L452.511,735.358L442.777,736.483L442.824,743.221L433.678,762.216L437.73,774.819L436.24,784.919L455.759,803.595L466.626,804.194L492.16,820.391L505.436,822.991L517.553,817.012L518.325,802.289L504.489,787.247L528.719,754.778L528.015,728.745L539.659,711.221L531.507,697.427L541.114,684.349L531.079,684.209L520.112,676.189L515.192,666.17L507.889,654.743L508.209,646.933L502.274,638.965L501.707,628.327L511.324,628.857L493.687,616.65L489.577,630.386L481.592,617.698L475.446,619.129L466.014,616.769L461.541,589.178L465.765,562.458L471.821,566.216L476.314,566.727L478.056,553.04L482.365,549.908L485.905,568.116L490.593,571.23L497.273,551.109L503.848,548.051L512.433,557.036L517.386,554.928L511.891,544.285L510.83,526.626L515.815,512.092L506.484,504.772L500.244,489.356L498.411,475.179L502.822,469.042L508.591,466.116L509.207,460.158L499.072,457.403L490.578,458.679L482.924,468.729L463.595,463.402L447.08,444.001L437.444,423.395L430.771,394.809L435.566,383.101L442.724,372.526L442.866,365.755L426.242,359.556L407.833,379.081L405.532,394.136L420,441.419L428.55,479.305L459.724,493.9L431.316,528.894L417.325,549.43L416.662,558.784L399.763,541.376L386.012,549.879L384.52,558.01L369.948,557.972L355.67,547.732L345.512,548.098L334.586,564.042L309.308,554.214L258.507,523.01L241.84,522.513L230.232,506.421L238.24,486.757L233.415,474.924L241.986,465.734L270.239,446.305L281.304,413.698L267.158,379.037L271.497,358.149L250.639,333.016L244.369,317.031L255.265,299.919L251.295,274.414L284.63,232.207L334.348,190.346L331.938,171.31L340.327,159.226L343.18,151.169L691.975,151.169L691.975,571.31L683.418,561.434L677.758,554.631L671.86,544.139L663.704,545.042L654.043,548.925L657.748,560.643L662.99,569.36L677.364,580.528L682.098,585.753L682.906,593.049L678.034,605.096L652.958,623.812L647.068,634.937L653.116,645.338L649.839,655.527L649.973,671.257L647.716,681.295L652.588,690.567L668.819,694.907L671.857,697.043L675.323,695.098L678.918,698.212L682.663,697.76L687.389,700.444L691.975,710.965L691.975,1220.03L197.725,1220.03L197.725,1156.19ZM651.9,970.729L641.293,962.616L631.996,952.32L628.256,944.618L619.172,946.273L616.372,961.336L627.109,973.259L616.263,973.621L611.108,977.295L616.502,983.161L623.647,982.382L624.694,990.23L626.716,997.182L629.193,998.29L630.463,996.19L630.787,987.583L638.568,982.128L640.392,973.648L651.9,970.729ZM682.709,666.531L680.339,660.161L683.951,652.407L688.982,647.937L689.677,640.115L691.975,637.59L691.975,679.707L687.205,674.937L682.709,666.531ZM476.842,700.808L461.332,688.319L447.552,671.643L447.941,656.627L455.577,657.37L461.646,650.54L471.623,657.647L484.213,651.873L488.586,657.301L490.429,668.443L519.72,680.327L519.562,693.418L509.522,711.202L510.673,754.609L487.36,779.984L466.894,771.153L459.085,755.821L470.234,746.137L473.917,732.205L480.486,722.962L476.842,700.808Z" style="fill:white;" id="Layer1" transform="matrix(2.07359 0 0 2.39826 -410.299 -365.783)"/>
        <g transform="matrix(1 0 0 .99994 0 -.003)">
          <g transform="matrix(.64265 0 0 .64265 369.73 702.437)">
            <rect x="726.957" y="1906.49" width="16.193" height="42.233" style="fill:rgb(132,65,0);" transform="matrix(.45797 0 0 .38864 354.203 1140.75)"/>
            <path d="M739.011,1904.5L754.351,1936.65L723.672,1936.65L739.011,1904.5Z" style="fill:rgb(88,132,0);" transform="matrix(1 0 0 1 -48.61 -50.616)"/>
            <path d="M739.011,1904.5L754.351,1936.65L723.672,1936.65L739.011,1904.5Z" style="fill:rgb(88,132,0);" transform="matrix(1 0 0 1 -48.61 -60.616)"/>
          </g>
          <g transform="matrix(.64265 0 0 .64265 347.483 724.269)">
            <rect x="726.957" y="1906.49" width="16.193" height="42.233" style="fill:rgb(132,65,0);" transform="matrix(.45797 0 0 .38864 354.203 1140.75)"/>
            <path d="M739.011,1904.5L754.351,1936.65L723.672,1936.65L739.011,1904.5Z" style="fill:rgb(88,132,0);" transform="matrix(1 0 0 1 -48.61 -50.616)"/>
            <path d="M739.011,1904.5L754.351,1936.65L723.672,1936.65L739.011,1904.5Z" style="fill:rgb(88,132,0);" transform="matrix(1 0 0 1 -48.61 -60.616)"/>
          </g>
          <g transform="matrix(.64265 0 0 .64265 347.483 724.269)">
            <rect x="726.957" y="1906.49" width="16.193" height="42.233" style="fill:rgb(132,65,0);" transform="matrix(.45797 0 0 .38864 354.203 1140.75)"/>
            <path d="M739.011,1904.5L754.351,1936.65L723.672,1936.65L739.011,1904.5Z" style="fill:rgb(88,132,0);" transform="matrix(1 0 0 1 -48.61 -50.616)"/>
            <path d="M739.011,1904.5L754.351,1936.65L723.672,1936.65L739.011,1904.5Z" style="fill:rgb(88,132,0);" transform="matrix(1 0 0 1 -48.61 -60.616)"/>
          </g>
          <g transform="matrix(.64265 0 0 .64265 338.418 687.771)">
            <rect x="726.957" y="1906.49" width="16.193" height="42.233" style="fill:rgb(132,65,0);" transform="matrix(.45797 0 0 .38864 354.203 1140.75)"/>
            <path d="M739.011,1904.5L754.351,1936.65L723.672,1936.65L739.011,1904.5Z" style="fill:rgb(88,132,0);" transform="matrix(1 0 0 1 -48.61 -50.616)"/>
            <path d="M739.011,1904.5L754.351,1936.65L723.672,1936.65L739.011,1904.5Z" style="fill:rgb(88,132,0);" transform="matrix(1 0 0 1 -48.61 -60.616)"/>
          </g>
          <g transform="matrix(.64265 0 0 .64265 329.352 651.273)">
            <rect x="726.957" y="1906.49" width="16.193" height="42.233" style="fill:rgb(132,65,0);" transform="matrix(.45797 0 0 .38864 354.203 1140.75)"/>
            <path d="M739.011,1904.5L754.351,1936.65L723.672,1936.65L739.011,1904.5Z" style="fill:rgb(88,132,0);" transform="matrix(1 0 0 1 -48.61 -50.616)"/>
            <path d="M739.011,1904.5L754.351,1936.65L723.672,1936.65L739.011,1904.5Z" style="fill:rgb(88,132,0);" transform="matrix(1 0 0 1 -48.61 -60.616)"/>
          </g>
          <g transform="matrix(.64265 0 0 .64265 308.59 684.802)">
            <rect x="726.957" y="1906.49" width="16.193" height="42.233" style="fill:rgb(132,65,0);" transform="matrix(.45797 0 0 .38864 354.203 1140.75)"/>
            <path d="M739.011,1904.5L754.351,1936.65L723.672,1936.65L739.011,1904.5Z" style="fill:rgb(88,132,0);" transform="matrix(1 0 0 1 -48.61 -50.616)"/>
            <path d="M739.011,1904.5L754.351,1936.65L723.672,1936.65L739.011,1904.5Z" style="fill:rgb(88,132,0);" transform="matrix(1 0 0 1 -48.61 -60.616)"/>
          </g>
          <g transform="matrix(.64265 0 0 .64265 287.829 718.331)">
            <rect x="726.957" y="1906.49" width="16.193" height="42.233" style="fill:rgb(132,65,0);" transform="matrix(.45797 0 0 .38864 354.203 1140.75)"/>
            <path d="M739.011,1904.5L754.351,1936.65L723.672,1936.65L739.011,1904.5Z" style="fill:rgb(88,132,0);" transform="matrix(1 0 0 1 -48.61 -50.616)"/>
            <path d="M739.011,1904.5L754.351,1936.65L723.672,1936.65L739.011,1904.5Z" style="fill:rgb(88,132,0);" transform="matrix(1 0 0 1 -48.61 -60.616)"/>
          </g>
          <g transform="matrix(.64265 0 0 .64265 313.63 743.742)">
            <rect x="726.957" y="1906.49" width="16.193" height="42.233" style="fill:rgb(132,65,0);" transform="matrix(.45797 0 0 .38864 354.203 1140.75)"/>
            <path d="M739.011,1904.5L754.351,1936.65L723.672,1936.65L739.011,1904.5Z" style="fill:rgb(88,132,0);" transform="matrix(1 0 0 1 -48.61 -50.616)"/>
            <path d="M739.011,1904.5L754.351,1936.65L723.672,1936.65L739.011,1904.5Z" style="fill:rgb(88,132,0);" transform="matrix(1 0 0 1 -48.61 -60.616)"/>
          </g>
        </g>
      </g>
      
      
    </g>
  </g>
</svg>
